{
  "accessors": [
    {
      "bufferView": 2,
      "componentType": 5126,
      "count": 65532,
      "max": [
        56.729579925537109,
        57.696575164794922,
        161.19683837890625
      ],
      "min": [
        -40.426078796386719,
        -20.87104606628418,
        -2.1157989501953125
      ],
      "type": "VEC3"
    },
    {
      "bufferView": 2,
      "byteOffset": 786384,
      "componentType": 5126,
      "count": 65532,
      "max": [
        0.99999594688415527,
        0.99999618530273438,
        0.99991416931152344
      ],
      "min": [
        -0.99980968236923218,
        -0.99886780977249146,
        -1
      ],
      "type": "VEC3"
    },
    {
      "bufferView": 3,
      "componentType": 5126,
      "count": 65532,
      "max": [
        0.99995648860931396,
        0.99994432926177979,
        0.99999505281448364,
        1
      ],
      "min": [
        -0.9999701976776123,
        -0.99926424026489258,
        -0.99976605176925659,
        -1
      ],
      "type": "VEC4"
    },
    {
      "bufferView": 1,
      "componentType": 5126,
      "count": 65532,
      "max": [
        0.98931401968002319,
        0.99910199642181396
      ],
      "min": [
        0.0035949999000877142,
        0.0080939996987581253
      ],
      "type": "VEC2"
    },
    {
      "bufferView": 0,
      "componentType": 5125,
      "count": 352809,
      "max": [
        65531
      ],
      "min": [
        0
      ],
      "type": "SCALAR"
    },
    {
      "bufferView": 2,
      "byteOffset": 1572768,
      "componentType": 5126,
      "count": 65532,
      "max": [
        56.681190490722656,
        57.636520385742188,
        166.157958984375
      ],
      "min": [
        -55.035930633544922,
        -33.4013671875,
        -2.1190869808197021
      ],
      "type": "VEC3"
    },
    {
      "bufferView": 2,
      "byteOffset": 2359152,
      "componentType": 5126,
      "count": 65532,
      "max": [
        0.99999594688415527,
        0.99992847442626953,
        0.99886107444763184
      ],
      "min": [
        -0.99996107816696167,
        -0.99998629093170166,
        -0.99999767541885376
      ],
      "type": "VEC3"
    },
    {
      "bufferView": 3,
      "byteOffset": 1048512,
      "componentType": 5126,
      "count": 65532,
      "max": [
        0.99999123811721802,
        0.99989694356918335,
        0.99998581409454346,
        1
      ],
      "min": [
        -0.99999523162841797,
        -0.99991905689239502,
        -0.99998152256011963,
        -1
      ],
      "type": "VEC4"
    },
    {
      "bufferView": 1,
      "byteOffset": 524256,
      "componentType": 5126,
      "count": 65532,
      "max": [
        0.99257099628448486,
        0.99959999322891235
      ],
      "min": [
        0.0058079999871551991,
        0.003599999938160181
      ],
      "type": "VEC2"
    },
    {
      "bufferView": 0,
      "byteOffset": 1411236,
      "componentType": 5125,
      "count": 340734,
      "max": [
        65531
      ],
      "min": [
        0
      ],
      "type": "SCALAR"
    },
    {
      "bufferView": 2,
      "byteOffset": 3145536,
      "componentType": 5126,
      "count": 65532,
      "max": [
        56.736568450927734,
        11.971843719482422,
        157.42198181152344
      ],
      "min": [
        -49.774730682373047,
        -37.542488098144531,
        3.1785280704498291
      ],
      "type": "VEC3"
    },
    {
      "bufferView": 2,
      "byteOffset": 3931920,
      "componentType": 5126,
      "count": 65532,
      "max": [
        0.99996697902679443,
        0.99747306108474731,
        0.99999338388442993
      ],
      "min": [
        -0.99903613328933716,
        -0.99999862909317017,
        -0.99999767541885376
      ],
      "type": "VEC3"
    },
    {
      "bufferView": 3,
      "byteOffset": 2097024,
      "componentType": 5126,
      "count": 65532,
      "max": [
        0.99998992681503296,
        0.9998553991317749,
        0.99999946355819702,
        1
      ],
      "min": [
        -0.99998199939727783,
        -0.99954867362976074,
        -0.99996310472488403,
        -1
      ],
      "type": "VEC4"
    },
    {
      "bufferView": 1,
      "byteOffset": 1048512,
      "componentType": 5126,
      "count": 65532,
      "max": [
        0.94205200672149658,
        0.99956697225570679
      ],
      "min": [
        0.0036589999217540026,
        0.02435700036585331
      ],
      "type": "VEC2"
    },
    {
      "bufferView": 0,
      "byteOffset": 2774172,
      "componentType": 5125,
      "count": 333075,
      "max": [
        65531
      ],
      "min": [
        0
      ],
      "type": "SCALAR"
    },
    {
      "bufferView": 2,
      "byteOffset": 4718304,
      "componentType": 5126,
      "count": 65532,
      "max": [
        31.130401611328125,
        37.034160614013672,
        171.243896484375
      ],
      "min": [
        -55.035930633544922,
        -36.843875885009766,
        -2.1147689819335938
      ],
      "type": "VEC3"
    },
    {
      "bufferView": 2,
      "byteOffset": 5504688,
      "componentType": 5126,
      "count": 65532,
      "max": [
        0.9997367262840271,
        0.99971085786819458,
        0.99982255697250366
      ],
      "min": [
        -0.99997127056121826,
        -0.99994736909866333,
        -0.99999582767486572
      ],
      "type": "VEC3"
    },
    {
      "bufferView": 3,
      "byteOffset": 3145536,
      "componentType": 5126,
      "count": 65532,
      "max": [
        0.99988901615142822,
        0.99993038177490234,
        0.99999731779098511,
        1
      ],
      "min": [
        -0.99987846612930298,
        -0.99943083524703979,
        -0.99312746524810791,
        -1
      ],
      "type": "VEC4"
    },
    {
      "bufferView": 1,
      "byteOffset": 1572768,
      "componentType": 5126,
      "count": 65532,
      "max": [
        0.99574398994445801,
        0.9991300106048584
      ],
      "min": [
        0.020258000120520592,
        0.031179999932646751
      ],
      "type": "VEC2"
    },
    {
      "bufferView": 0,
      "byteOffset": 4106472,
      "componentType": 5125,
      "count": 333699,
      "max": [
        65531
      ],
      "min": [
        0
      ],
      "type": "SCALAR"
    },
    {
      "bufferView": 2,
      "byteOffset": 6291072,
      "componentType": 5126,
      "count": 65532,
      "max": [
        51.780830383300781,
        37.24224853515625,
        171.32342529296875
      ],
      "min": [
        -45.201168060302734,
        -37.529567718505859,
        105.17839813232422
      ],
      "type": "VEC3"
    },
    {
      "bufferView": 2,
      "byteOffset": 7077456,
      "componentType": 5126,
      "count": 65532,
      "max": [
        0.99994754791259766,
        0.99999511241912842,
        0.9999811053276062
      ],
      "min": [
        -0.99999576807022095,
        -0.99999523162841797,
        -0.99998998641967773
      ],
      "type": "VEC3"
    },
    {
      "bufferView": 3,
      "byteOffset": 4194048,
      "componentType": 5126,
      "count": 65532,
      "max": [
        0.99937969446182251,
        0.99996328353881836,
        0.99997448921203613,
        1
      ],
      "min": [
        -0.99926221370697021,
        -0.9998282790184021,
        -0.99586707353591919,
        -1
      ],
      "type": "VEC4"
    },
    {
      "bufferView": 1,
      "byteOffset": 2097024,
      "componentType": 5126,
      "count": 65532,
      "max": [
        0.87811398506164551,
        0.94497197866439819
      ],
      "min": [
        0.2528730034828186,
        0.0034320000559091568
      ],
      "type": "VEC2"
    },
    {
      "bufferView": 0,
      "byteOffset": 5441268,
      "componentType": 5125,
      "count": 340365,
      "max": [
        65531
      ],
      "min": [
        0
      ],
      "type": "SCALAR"
    },
    {
      "bufferView": 2,
      "byteOffset": 7863840,
      "componentType": 5126,
      "count": 681,
      "max": [
        37.409736633300781,
        38.502090454101562,
        168.70223999023438
      ],
      "min": [
        -44.442626953125,
        -15.369257926940918,
        12.420181274414062
      ],
      "type": "VEC3"
    },
    {
      "bufferView": 2,
      "byteOffset": 7872012,
      "componentType": 5126,
      "count": 681,
      "max": [
        0.93127906322479248,
        0.44866478443145752,
        0.99960130453109741
      ],
      "min": [
        -0.95798242092132568,
        -0.99779254198074341,
        -0.99997925758361816
      ],
      "type": "VEC3"
    },
    {
      "bufferView": 3,
      "byteOffset": 5242560,
      "componentType": 5126,
      "count": 681,
      "max": [
        0.99889171123504639,
        0.99959737062454224,
        0.99734723567962646,
        1
      ],
      "min": [
        -0.99921780824661255,
        -0.99943083524703979,
        -0.64042496681213379,
        -1
      ],
      "type": "VEC4"
    },
    {
      "bufferView": 1,
      "byteOffset": 2621280,
      "componentType": 5126,
      "count": 681,
      "max": [
        0.98016798496246338,
        0.99524801969528198
      ],
      "min": [
        0.0068319998681545258,
        0.1302029937505722
      ],
      "type": "VEC2"
    },
    {
      "bufferView": 0,
      "byteOffset": 6802728,
      "componentType": 5125,
      "count": 1419,
      "max": [
        680
      ],
      "min": [
        0
      ],
      "type": "SCALAR"
    }
  ],
  "asset": {
    "extras": {
      "author": "Barbucha Studio (https://sketchfab.com/lukinec)",
      "license": "CC-BY-4.0 (http://creativecommons.org/licenses/by/4.0/)",
      "source": "https://sketchfab.com/models/45ecc88d44194525aae4a1bb112f6d77",
      "title": "Chinese Cat ( that is actually Japanese )"
    },
    "generator": "Sketchfab-3.29.4-rc4",
    "version": "2.0"
  },
  "bufferViews": [
    {
      "buffer": 0,
      "byteLength": 6808404,
      "byteOffset": 0,
      "name": "floatBufferViews",
      "target": 34963
    },
    {
      "buffer": 0,
      "byteLength": 2626728,
      "byteOffset": 6808404,
      "byteStride": 8,
      "name": "floatBufferViews",
      "target": 34962
    },
    {
      "buffer": 0,
      "byteLength": 7880184,
      "byteOffset": 9435132,
      "byteStride": 12,
      "name": "floatBufferViews",
      "target": 34962
    },
    {
      "buffer": 0,
      "byteLength": 5253456,
      "byteOffset": 17315316,
      "byteStride": 16,
      "name": "floatBufferViews",
      "target": 34962
    }
  ],
  "buffers": [
    {
      "byteLength": 22568772,
      "uri": "scene.bin"
    }
  ],
  "images": [
    {
      "uri": "textures/material_0_baseColor.jpg"
    },
    {
      "uri": "textures/material_0_metallicRoughness.png"
    }
  ],
  "materials": [
    {
      "doubleSided": true,
      "name": "material_0",
      "pbrMetallicRoughness": {
        "baseColorFactor": [
          1,
          1,
          1,
          1
        ],
        "baseColorTexture": {
          "index": 0,
          "texCoord": 0
        },
        "metallicFactor": 0.42999999999999999,
        "metallicRoughnessTexture": {
          "index": 1,
          "texCoord": 0
        },
        "roughnessFactor": 1
      }
    }
  ],
  "meshes": [
    {
      "primitives": [
        {
          "attributes": {
            "NORMAL": 1,
            "POSITION": 0,
            "TANGENT": 2,
            "TEXCOORD_0": 3
          },
          "indices": 4,
          "material": 0,
          "mode": 4
        }
      ]
    },
    {
      "primitives": [
        {
          "attributes": {
            "NORMAL": 6,
            "POSITION": 5,
            "TANGENT": 7,
            "TEXCOORD_0": 8
          },
          "indices": 9,
          "material": 0,
          "mode": 4
        }
      ]
    },
    {
      "primitives": [
        {
          "attributes": {
            "NORMAL": 11,
            "POSITION": 10,
            "TANGENT": 12,
            "TEXCOORD_0": 13
          },
          "indices": 14,
          "material": 0,
          "mode": 4
        }
      ]
    },
    {
      "primitives": [
        {
          "attributes": {
            "NORMAL": 16,
            "POSITION": 15,
            "TANGENT": 17,
            "TEXCOORD_0": 18
          },
          "indices": 19,
          "material": 0,
          "mode": 4
        }
      ]
    },
    {
      "primitives": [
        {
          "attributes": {
            "NORMAL": 21,
            "POSITION": 20,
            "TANGENT": 22,
            "TEXCOORD_0": 23
          },
          "indices": 24,
          "material": 0,
          "mode": 4
        }
      ]
    },
    {
      "primitives": [
        {
          "attributes": {
            "NORMAL": 26,
            "POSITION": 25,
            "TANGENT": 27,
            "TEXCOORD_0": 28
          },
          "indices": 29,
          "material": 0,
          "mode": 4
        }
      ]
    }
  ],
  "nodes": [
    {
      "children": [
        1
      ],
      "name": "RootNode (gltf orientation matrix)",
      "rotation": [
        -0.70710678118654746,
        -0,
        -0,
        0.70710678118654757
      ]
    },
    {
      "children": [
        2
      ],
      "name": "RootNode (model correction matrix)"
    },
    {
      "children": [
        3,
        4,
        5,
        6,
        7,
        8
      ],
      "name": "f9b0c84473174d5c9ceeb1f6740019c7.obj.cleaner"
    },
    {
      "mesh": 0,
      "name": ""
    },
    {
      "mesh": 1,
      "name": ""
    },
    {
      "mesh": 2,
      "name": ""
    },
    {
      "mesh": 3,
      "name": ""
    },
    {
      "mesh": 4,
      "name": ""
    },
    {
      "mesh": 5,
      "name": ""
    }
  ],
  "samplers": [
    {
      "magFilter": 9729,
      "minFilter": 9987,
      "wrapS": 10497,
      "wrapT": 10497
    }
  ],
  "scene": 0,
  "scenes": [
    {
      "name": "OSG_Scene",
      "nodes": [
        0
      ]
    }
  ],
  "textures": [
    {
      "sampler": 0,
      "source": 0
    },
    {
      "sampler": 0,
      "source": 1
    }
  ]
}

